<?xml version="1.0" encoding="utf-8"?>
<!-- Generator: Adobe Illustrator 24.0.2, SVG Export Plug-In . SVG Version: 6.00 Build 0)  -->
<svg version="1.1" id="Layer_1" xmlns="http://www.w3.org/2000/svg" xmlns:xlink="http://www.w3.org/1999/xlink" x="0px" y="0px"
	 viewBox="0 0 250 45.8" style="enable-background:new 0 0 250 45.8;" xml:space="preserve">
<style type="text/css">
	.st0{fill-rule:evenodd;clip-rule:evenodd;fill:#FFFFFF;stroke:#000000;stroke-miterlimit:10;}
	.st1{fill-rule:evenodd;clip-rule:evenodd;fill:#4360AC;stroke:#000000;stroke-miterlimit:10;}
</style>
<g>
	<path class="st0" d="M50.7,4.9h4.1v27.9c0,3.6-0.7,6.3-2.1,7.9c-1.4,1.6-3.6,2.5-6.6,2.5h-1.5v-3.4h1.3c1.8,0,3.1-0.5,3.8-1.5
		c0.7-1,1.1-2.8,1.1-5.4L50.7,4.9L50.7,4.9z"/>
	<path class="st0" d="M77.3,13.1v3.5c-1-0.5-2.1-0.9-3.3-1.2c-1.1-0.3-2.3-0.4-3.5-0.4c-1.8,0-3.2,0.3-4.1,0.8
		c-0.9,0.6-1.4,1.4-1.4,2.5c0,0.9,0.3,1.5,1,2c0.7,0.5,2,0.9,4,1.4l1.3,0.3c2.6,0.6,4.5,1.4,5.6,2.4c1.1,1,1.7,2.5,1.7,4.3
		c0,2.1-0.8,3.7-2.5,5c-1.7,1.2-3.9,1.8-6.8,1.8c-1.2,0-2.5-0.1-3.8-0.4c-1.3-0.2-2.7-0.6-4.1-1v-3.8c1.4,0.7,2.7,1.2,4,1.6
		c1.3,0.3,2.6,0.5,3.9,0.5c1.8,0,3.1-0.3,4-0.9c0.9-0.6,1.4-1.4,1.4-2.5c0-1-0.3-1.8-1-2.3c-0.7-0.5-2.2-1-4.4-1.5l-1.3-0.3
		c-2.3-0.5-3.9-1.2-5-2.2c-1-1-1.5-2.4-1.5-4.1c0-2.1,0.7-3.8,2.3-4.9c1.5-1.1,3.6-1.7,6.4-1.7c1.4,0,2.7,0.1,3.9,0.3
		C75.1,12.4,76.2,12.7,77.3,13.1L77.3,13.1z"/>
	<path class="st0" d="M100.5,13.3v3.5c-1-0.6-2.1-1-3.2-1.3c-1-0.3-2.1-0.4-3.2-0.4c-2.4,0-4.3,0.8-5.6,2.3c-1.3,1.5-2,3.6-2,6.4
		s0.7,4.9,2,6.4c1.3,1.5,3.2,2.3,5.6,2.3c1.1,0,2.1-0.1,3.2-0.4c1.1-0.3,2.1-0.7,3.2-1.3v3.4c-1,0.5-2.1,0.8-3.2,1.1
		c-1.1,0.2-2.3,0.4-3.5,0.4c-3.4,0-6.1-1.1-8.1-3.2c-2-2.1-3-5-3-8.6c0-3.7,1-6.6,3-8.7c2-2.1,4.8-3.2,8.3-3.2
		c1.1,0,2.3,0.1,3.3,0.4C98.5,12.5,99.5,12.8,100.5,13.3L100.5,13.3z"/>
	<path class="st0" d="M120.1,15.9c-0.4-0.2-0.9-0.4-1.4-0.5c-0.5-0.1-1-0.2-1.6-0.2c-2.1,0-3.7,0.7-4.8,2.1
		c-1.1,1.3-1.7,3.3-1.7,5.9V35h-3.7V12.4h3.7v3.5c0.8-1.4,1.8-2.4,3-3c1.2-0.7,2.8-1,4.5-1c0.3,0,0.5,0,0.8,0.1c0.3,0,0.6,0.1,1,0.1
		L120.1,15.9L120.1,15.9z"/>
	<path class="st0" d="M123.9,12.4h3.7V35h-3.7V12.4 M123.9,3.7h3.7v4.7h-3.7V3.7L123.9,3.7z"/>
	<path class="st0" d="M139,31.6v11.9h-3.7V12.4h3.7v3.4c0.8-1.3,1.8-2.3,2.9-3c1.2-0.7,2.6-1,4.3-1c2.7,0,4.9,1.1,6.7,3.3
		c1.7,2.2,2.6,5,2.6,8.6s-0.9,6.4-2.6,8.6c-1.7,2.2-3.9,3.3-6.7,3.3c-1.6,0-3.1-0.3-4.3-1C140.8,33.9,139.8,32.9,139,31.6
		 M151.6,23.7c0-2.7-0.6-4.9-1.7-6.4c-1.1-1.5-2.7-2.3-4.6-2.3c-2,0-3.5,0.8-4.6,2.3c-1.1,1.5-1.7,3.7-1.7,6.4s0.6,4.9,1.7,6.4
		c1.1,1.5,2.7,2.3,4.6,2.3c2,0,3.5-0.8,4.6-2.3C151,28.6,151.6,26.4,151.6,23.7L151.6,23.7z"/>
	<path class="st0" d="M165,6v6.4h7.6v2.9H165v12.2c0,1.8,0.2,3,0.7,3.5c0.5,0.5,1.5,0.8,3.1,0.8h3.8V35h-3.8c-2.9,0-4.8-0.5-5.9-1.6
		c-1.1-1.1-1.6-3-1.6-5.8V15.3h-2.7v-2.9h2.7V6H165L165,6z"/>
	<polygon class="st1" points="38,17.4 18.6,24.1 38,30.7 38,35.8 12.2,26.4 12.2,21.7 38,12.4 	"/>
	<polygon class="st1" points="179.7,6.5 205,6.5 205,11.2 188.8,30.7 205.4,30.7 205.4,36.5 179.2,36.5 179.2,31.8 195.4,12.3 
		179.7,12.3 	"/>
	<polygon class="st1" points="211.4,16.9 211.4,11.9 237.2,21.2 237.2,26 211.4,35.3 211.4,30.3 230.8,23.6 	"/>
</g>
</svg>
